<svg width="398" height="74" viewBox="0 0 398 74" fill="none" xmlns="http://www.w3.org/2000/svg">
<path d="M0.5 74V4.18182H50.8182V19.4545H19.4545V31.4545H48.2273V46.7273H19.4545V58.7273H50.6818V74H0.5ZM69.8187 73.25V0.125H78.4437V30.875L99.8187 0.125H109.944L90.0687 29L111.444 73.25H101.694L84.4437 36.125L78.4437 44.375V73.25H69.8187ZM137.169 30.875H162.669V38H137.169V66.125H166.794V73.25H128.544V0.125H164.919V7.25H137.169V30.875ZM204.894 29.375C207.644 29.375 210.019 28.375 212.019 26.375C214.269 24.125 215.394 21.375 215.394 18.125C215.394 14.875 214.519 12.375 212.769 10.625C210.519 8.375 208.269 7.25 206.019 7.25H193.644V29.375H204.894ZM204.519 0.125C210.269 0.125 214.644 1.625 217.644 4.625C221.394 8.375 223.269 12.875 223.269 18.125C223.269 22.875 221.894 26.625 219.144 29.375C216.894 31.625 215.019 33 213.519 33.5C216.269 35 218.519 36.625 220.269 38.375C223.519 41.625 225.144 46.125 225.144 51.875C225.144 58.125 223.519 62.875 220.269 66.125C215.519 70.875 210.019 73.25 203.769 73.25H185.019V0.125H204.519ZM193.644 36.5V66.125H202.269C206.519 66.125 210.144 64.625 213.144 61.625C215.644 59.125 216.894 55.875 216.894 51.875C216.894 47.375 215.519 43.75 212.769 41C209.769 38 206.769 36.5 203.769 36.5H193.644ZM252.369 30.875H277.869V38H252.369V66.125H281.994V73.25H243.744V0.125H280.119V7.25H252.369V30.875ZM300.594 0.125H309.219V66.125H339.594V73.25H300.594V0.125ZM367.569 30.875H393.069V38H367.569V66.125H397.194V73.25H358.944V0.125H395.319V7.25H367.569V30.875Z" fill="white"/>
</svg>
